<?xml version="1.0" standalone="no"?>
<!DOCTYPE svg PUBLIC "-//W3C//DTD SVG 20010904//EN"
 "http://www.w3.org/TR/2001/REC-SVG-20010904/DTD/svg10.dtd">
<svg version="1.0" xmlns="http://www.w3.org/2000/svg"
 width="91.000000pt" height="90.000000pt" viewBox="0 0 91.000000 90.000000"
 preserveAspectRatio="xMidYMid meet">

<g transform="translate(0.000000,90.000000) scale(0.100000,-0.100000)"
fill="#000000" stroke="none">
<path d="M298 680 c-7 -11 -23 -20 -35 -20 -33 0 -56 -28 -48 -59 12 -50 38
-93 72 -119 18 -15 45 -46 59 -69 15 -22 37 -47 50 -54 32 -17 30 -35 -6 -69
-21 -19 -30 -38 -30 -58 0 -26 -4 -31 -27 -34 -24 -3 -28 -8 -31 -41 l-3 -38
163 3 163 3 0 29 c0 28 -10 38 -47 50 -13 4 -18 16 -18 39 0 26 -6 36 -24 45
-35 16 -40 49 -10 69 14 9 36 34 49 57 13 23 40 53 59 68 33 27 76 99 76 130
0 23 -28 48 -53 48 -12 0 -28 9 -35 20 -11 19 -23 20 -162 20 -139 0 -151 -1
-162 -20z m299 -91 c-7 -106 -44 -185 -100 -212 -36 -18 -38 -18 -74 0 -55 27
-92 103 -100 211 l-6 82 143 0 143 0 -6 -81z m-300 -21 c6 -35 9 -64 8 -66 -7
-8 -56 68 -61 96 -6 29 -4 32 18 32 23 0 26 -5 35 -62z m383 47 c0 -25 -26
-79 -47 -97 -19 -17 -19 -16 -9 47 8 59 12 65 33 65 14 0 23 -6 23 -15z m-200
-301 c14 -35 14 -34 -20 -34 -34 0 -34 0 -18 35 14 32 26 32 38 -1z m50 -89
c0 -24 -2 -25 -70 -25 -68 0 -70 1 -70 25 0 24 2 25 70 25 68 0 70 -1 70 -25z
m68 -62 c3 -10 -29 -13 -137 -13 -129 0 -153 4 -134 24 13 13 266 2 271 -11z"/>
<path d="M436 595 c-9 -14 -25 -25 -36 -25 -24 0 -26 -13 -4 -31 10 -8 14 -23
12 -41 -6 -35 4 -43 31 -26 15 9 26 9 44 1 30 -14 39 -8 31 22 -3 13 1 27 10
34 22 19 20 41 -4 41 -11 0 -27 11 -36 25 -9 14 -20 25 -24 25 -4 0 -15 -11
-24 -25z m34 -35 c0 -5 7 -10 15 -10 13 0 13 -3 3 -20 -7 -11 -20 -20 -29 -20
-22 0 -32 27 -16 45 14 17 27 19 27 5z"/>
</g>
</svg>
