<?xml version="1.0" standalone="no"?>
<!DOCTYPE svg PUBLIC "-//W3C//DTD SVG 20010904//EN"
 "http://www.w3.org/TR/2001/REC-SVG-20010904/DTD/svg10.dtd">
<svg version="1.0" xmlns="http://www.w3.org/2000/svg"
 width="93.000000pt" height="90.000000pt" viewBox="0 0 93.000000 90.000000"
 preserveAspectRatio="xMidYMid meet">

<g transform="translate(0.000000,90.000000) scale(0.100000,-0.100000)"
fill="#000000" stroke="none">
<path d="M190 715 l-23 -24 27 -41 c14 -22 32 -40 38 -40 7 0 42 -30 79 -66
37 -36 69 -62 73 -56 7 11 -126 142 -146 142 -7 0 -20 13 -29 29 -15 26 -15
31 -2 44 13 13 18 13 44 -2 16 -9 29 -22 29 -29 0 -20 131 -153 142 -146 6 4
-20 36 -56 73 -36 37 -66 73 -66 82 0 12 -65 59 -82 59 -3 0 -15 -11 -28 -25z"/>
<path d="M578 724 c-33 -17 -58 -62 -58 -101 0 -41 -192 -233 -233 -233 -119
0 -160 -162 -55 -216 71 -37 168 14 168 88 0 21 9 41 26 59 23 24 29 26 41 14
7 -8 21 -11 30 -8 13 5 15 2 9 -12 -10 -28 125 -155 166 -155 39 0 78 40 78
81 0 42 -122 173 -153 163 -16 -5 -19 -3 -13 11 3 10 1 24 -5 32 -19 22 26 63
69 63 51 0 102 54 102 109 0 23 -3 41 -7 41 -4 0 -22 -14 -39 -31 -40 -38 -78
-35 -88 7 -6 22 -1 33 23 58 17 18 31 35 31 39 0 13 -64 7 -92 -9z m52 -11 c0
-4 -9 -17 -21 -29 -17 -18 -19 -27 -12 -55 8 -28 16 -36 46 -43 32 -8 40 -6
62 14 22 20 25 21 25 6 0 -31 -55 -76 -92 -76 -28 0 -47 -15 -145 -112 -103
-103 -113 -116 -113 -149 0 -48 -45 -89 -97 -89 -49 0 -93 45 -93 95 0 49 44
95 92 95 28 0 47 15 145 112 99 99 113 117 113 146 0 24 9 42 29 63 27 26 61
39 61 22z m-68 -300 c2 -21 8 -28 25 -28 14 0 45 -22 78 -55 l55 -54 -37 -38
c-20 -21 -42 -38 -48 -38 -19 0 -103 94 -107 120 -2 19 -10 26 -30 28 -16 2
-28 6 -28 10 0 9 72 82 81 82 4 0 9 -12 11 -27z m152 -214 c-15 -17 -54 -27
-54 -14 0 3 15 18 33 34 24 23 33 26 35 15 2 -9 -4 -24 -14 -35z"/>
<path d="M450 455 c-57 -57 -101 -108 -97 -112 8 -7 217 195 217 209 0 19 -22
1 -120 -97z"/>
<path d="M235 303 c-16 -24 -16 -28 -2 -52 12 -20 25 -27 54 -29 34 -3 41 0
52 24 9 21 9 34 0 56 -10 24 -17 28 -49 28 -30 0 -41 -6 -55 -27z m90 -12 c9
-30 -5 -51 -36 -51 -33 0 -52 26 -38 52 13 25 66 24 74 -1z"/>
<path d="M567 343 c-8 -12 90 -109 100 -100 4 4 -16 31 -44 58 -28 28 -53 47
-56 42z"/>
</g>
</svg>
