<?xml version="1.0" standalone="no"?>
<!DOCTYPE svg PUBLIC "-//W3C//DTD SVG 20010904//EN"
 "http://www.w3.org/TR/2001/REC-SVG-20010904/DTD/svg10.dtd">
<svg version="1.0" xmlns="http://www.w3.org/2000/svg"
 width="89.000000pt" height="90.000000pt" viewBox="0 0 89.000000 90.000000"
 preserveAspectRatio="xMidYMid meet">

<g transform="translate(0.000000,90.000000) scale(0.100000,-0.100000)"
fill="#000000" stroke="none">
<path d="M562 718 c-13 -13 -16 -75 -6 -102 3 -9 15 -16 25 -16 14 0 19 -7 19
-25 0 -31 1 -31 49 -1 21 13 49 26 62 28 22 3 24 7 24 63 l0 60 -80 3 c-54 2
-84 -1 -93 -10z m158 -53 c0 -35 -4 -45 -16 -45 -9 0 -32 -10 -51 -22 l-35
-21 7 21 c5 19 3 22 -24 22 -30 0 -31 1 -31 45 l0 45 75 0 75 0 0 -45z"/>
<path d="M590 680 c0 -5 25 -10 55 -10 30 0 55 5 55 10 0 6 -25 10 -55 10 -30
0 -55 -4 -55 -10z"/>
<path d="M595 650 c-4 -6 10 -10 35 -10 25 0 39 4 35 10 -3 6 -19 10 -35 10
-16 0 -32 -4 -35 -10z"/>
<path d="M685 650 c-3 -5 -1 -10 4 -10 6 0 11 5 11 10 0 6 -2 10 -4 10 -3 0
-8 -4 -11 -10z"/>
<path d="M362 687 c-46 -14 -127 -90 -148 -137 -18 -41 -29 -49 -36 -28 -3 7
-7 8 -10 2 -4 -5 1 -20 11 -32 15 -21 20 -22 44 -11 28 13 39 36 12 25 -52
-19 29 104 92 141 40 23 61 28 123 30 41 1 77 3 80 3 3 0 -2 5 -10 10 -19 13
-116 11 -158 -3z"/>
<path d="M405 626 c-52 -23 -69 -51 -73 -119 -4 -55 -1 -67 24 -105 15 -23 31
-42 36 -42 4 0 8 -4 8 -9 0 -5 -18 -11 -39 -15 -25 -4 -47 -15 -59 -30 -18
-23 -20 -24 -35 -8 -16 15 -15 18 5 39 l22 23 -35 36 -34 35 -32 -35 c-18 -20
-33 -46 -33 -58 0 -14 29 -51 83 -105 98 -98 119 -103 174 -48 35 35 36 35
124 35 49 0 89 2 89 4 0 14 -26 74 -38 89 -9 9 -33 20 -54 23 -47 8 -48 19 -3
34 l35 12 0 81 c0 45 -6 93 -13 106 -28 55 -99 81 -152 57z m118 -46 c16 -18
27 -42 27 -59 0 -28 -1 -29 -35 -21 -20 4 -42 14 -50 20 -12 10 -18 10 -30 0
-8 -6 -30 -16 -50 -20 -33 -8 -35 -7 -35 20 0 31 33 77 64 91 34 14 79 1 109
-31z m-35 -91 c30 -13 33 -17 30 -54 -3 -37 -5 -40 -35 -43 -18 -2 -33 -8 -33
-14 0 -6 9 -8 20 -5 11 3 20 1 20 -4 0 -5 -17 -9 -38 -9 -48 0 -69 21 -73 73
-3 34 0 39 31 56 19 10 37 18 40 16 3 -1 20 -8 38 -16z m-243 -109 c27 -30 12
-34 -15 -5 -13 14 -19 25 -13 25 5 0 18 -9 28 -20z m-12 -55 c-7 -20 77 -107
98 -102 19 5 64 -35 52 -46 -20 -21 -54 -1 -127 72 -70 70 -78 82 -72 106 l7
28 24 -23 c13 -12 21 -28 18 -35z m229 3 c-9 -9 -15 -9 -24 0 -9 9 -7 12 12
12 19 0 21 -3 12 -12z m11 -21 c19 17 28 18 65 11 41 -9 62 -32 62 -69 0 -5
-42 -9 -93 -9 -81 0 -96 3 -112 20 l-18 20 -24 -22 c-21 -20 -25 -20 -39 -6
-25 25 -3 55 49 66 36 7 45 6 65 -11 l22 -20 23 20z m-63 -100 c0 -6 -9 -2
-20 8 -11 10 -20 23 -20 28 0 6 9 2 20 -8 11 -10 20 -23 20 -28z"/>
<path d="M661 524 c-6 -15 -9 -29 -5 -33 4 -3 9 0 11 7 12 31 23 6 23 -51 0
-48 -6 -76 -25 -112 -27 -54 -24 -74 5 -35 28 37 43 103 38 164 -3 42 -2 53 9
49 21 -8 15 15 -6 27 -29 15 -37 13 -50 -16z"/>
</g>
</svg>
