<?xml version="1.0" standalone="no"?>
<!DOCTYPE svg PUBLIC "-//W3C//DTD SVG 20010904//EN"
 "http://www.w3.org/TR/2001/REC-SVG-20010904/DTD/svg10.dtd">
<svg version="1.0" xmlns="http://www.w3.org/2000/svg"
 width="91.000000pt" height="90.000000pt" viewBox="0 0 91.000000 90.000000"
 preserveAspectRatio="xMidYMid meet">

<g transform="translate(0.000000,90.000000) scale(0.100000,-0.100000)"
fill="#000000" stroke="none">
<path d="M362 728 c-7 -7 -12 -35 -12 -63 0 -45 -4 -55 -31 -79 -17 -15 -35
-41 -41 -57 -5 -16 -16 -29 -24 -29 -17 0 -19 -20 -1 -20 6 -1 21 -20 32 -43
15 -31 31 -47 63 -62 23 -11 42 -25 42 -33 0 -7 5 -10 11 -7 6 4 8 10 4 13 -3
3 14 15 37 26 32 16 48 32 63 63 11 23 26 42 33 43 6 0 12 5 12 10 0 6 -6 10
-12 10 -7 0 -21 19 -32 41 -14 31 -29 46 -63 61 -24 10 -41 23 -38 29 11 16
-7 10 -21 -8 -12 -16 -13 -15 -14 10 l0 27 75 0 c43 0 75 4 75 10 0 6 -32 10
-76 10 -66 0 -75 2 -72 18 3 15 19 17 136 20 173 3 167 22 -7 22 -85 0 -131
-4 -139 -12z m28 -148 c0 -6 7 -6 19 2 24 14 59 -6 81 -46 12 -24 12 -29 0
-37 -12 -8 -12 -12 -2 -16 17 -7 15 -27 -6 -54 l-19 -22 -7 26 c-3 15 -10 27
-15 27 -5 0 -7 18 -4 39 5 33 2 41 -16 51 -44 23 -83 -17 -66 -69 4 -12 2 -21
-4 -21 -6 0 -14 -12 -17 -27 l-7 -26 -19 22 c-21 27 -23 47 -5 54 9 4 9 8 -1
15 -12 8 -11 15 2 40 9 17 24 36 33 41 23 13 53 14 53 1z m34 -65 c6 -18 -20
-39 -39 -31 -18 7 -20 43 -2 49 17 6 34 -2 41 -18z m-3 -65 c22 -13 26 -55 4
-63 -8 -4 -17 -1 -21 4 -4 7 -10 7 -16 1 -16 -16 -38 -2 -38 24 0 12 8 28 18
33 22 13 29 13 53 1z"/>
<path d="M212 653 l3 -48 55 0 55 0 3 48 3 47 -61 0 -61 0 3 -47z m96 0 c-3
-24 -8 -28 -40 -31 -36 -3 -38 -2 -38 27 0 30 2 31 41 31 38 0 40 -1 37 -27z"/>
<path d="M250 650 c0 -5 9 -10 20 -10 11 0 20 5 20 10 0 6 -9 10 -20 10 -11 0
-20 -4 -20 -10z"/>
<path d="M540 635 l0 -65 115 0 115 0 0 65 0 65 -115 0 -115 0 0 -65z m210 -5
l0 -51 -92 3 -93 3 -3 48 -3 47 95 0 96 0 0 -50z"/>
<path d="M580 650 c0 -5 9 -10 20 -10 11 0 20 5 20 10 0 6 -9 10 -20 10 -11 0
-20 -4 -20 -10z"/>
<path d="M640 650 c0 -5 20 -10 45 -10 25 0 45 5 45 10 0 6 -20 10 -45 10 -25
0 -45 -4 -45 -10z"/>
<path d="M580 610 c0 -6 32 -10 75 -10 43 0 75 4 75 10 0 6 -32 10 -75 10 -43
0 -75 -4 -75 -10z"/>
<path d="M640 504 c0 -38 -5 -54 -27 -76 -15 -15 -32 -28 -38 -28 -20 0 -55
-45 -55 -71 0 -14 -5 -30 -12 -37 -9 -9 0 -12 43 -12 62 0 71 4 92 45 9 17 45
63 81 103 69 76 76 91 51 112 -13 11 -24 6 -65 -29 l-50 -42 0 35 c0 19 -4 38
-10 41 -6 4 -10 -12 -10 -41z m65 -70 c-54 -60 -70 -72 -81 -63 -8 6 -14 15
-14 19 0 15 154 143 158 131 2 -6 -26 -45 -63 -87z m-97 -77 c18 -19 20 -26 9
-40 -6 -9 -27 -20 -44 -23 -31 -6 -33 -5 -33 20 0 34 16 66 34 66 7 0 22 -10
34 -23z"/>
<path d="M350 330 c0 -17 -8 -19 -67 -22 l-68 -3 -3 -47 -3 -48 116 0 116 0
-3 48 c-3 45 -4 47 -35 50 -25 2 -33 8 -33 23 0 10 -4 19 -10 19 -5 0 -10 -9
-10 -20z m75 -75 c0 -25 0 -25 -97 -25 -98 0 -98 0 -98 25 0 25 0 25 98 25 97
0 97 0 97 -25z"/>
<path d="M250 260 c0 -5 11 -10 25 -10 14 0 25 5 25 10 0 6 -11 10 -25 10 -14
0 -25 -4 -25 -10z"/>
<path d="M320 260 c0 -5 21 -10 46 -10 27 0 43 4 39 10 -3 6 -24 10 -46 10
-21 0 -39 -4 -39 -10z"/>
<path d="M640 275 c0 -12 -16 -15 -84 -15 -47 0 -88 -4 -91 -10 -4 -6 25 -10
79 -10 88 0 102 -6 91 -41 -7 -20 -13 -20 -141 -17 -86 2 -133 -1 -131 -7 2
-6 58 -11 132 -13 153 -3 165 3 165 80 0 26 -4 48 -10 48 -5 0 -10 -7 -10 -15z"/>
<path d="M490 210 c0 -5 5 -10 10 -10 6 0 10 5 10 10 0 6 -4 10 -10 10 -5 0
-10 -4 -10 -10z"/>
</g>
</svg>
