<?xml version="1.0" standalone="no"?>
<!DOCTYPE svg PUBLIC "-//W3C//DTD SVG 20010904//EN"
 "http://www.w3.org/TR/2001/REC-SVG-20010904/DTD/svg10.dtd">
<svg version="1.0" xmlns="http://www.w3.org/2000/svg"
 width="92.000000pt" height="90.000000pt" viewBox="0 0 92.000000 90.000000"
 preserveAspectRatio="xMidYMid meet">

<g transform="translate(0.000000,90.000000) scale(0.100000,-0.100000)"
fill="#000000" stroke="none">
<path d="M186 724 c-24 -23 -24 -525 0 -548 14 -14 50 -16 287 -14 l272 3 0
205 0 205 -112 3 -113 3 0 63 c0 93 -5 96 -178 96 -114 0 -143 -3 -156 -16z
m312 -36 l3 -28 -155 0 -156 0 0 23 c0 13 3 27 7 31 4 3 72 5 152 4 l146 -3 3
-27z m2 -72 c0 -29 -18 -44 -26 -22 -5 13 -27 16 -130 16 l-124 0 0 -65 0 -65
80 0 c72 0 80 -2 80 -19 0 -10 -9 -21 -20 -24 -17 -4 -20 -14 -20 -61 0 -45 4
-58 20 -68 11 -7 20 -21 20 -30 0 -16 -11 -18 -95 -18 l-95 0 0 190 0 190 155
0 155 0 0 -24z m-50 -26 c0 -5 -12 -10 -27 -10 -18 0 -35 -10 -50 -27 -21 -26
-24 -26 -33 -10 -15 24 -30 21 -67 -15 l-33 -32 0 47 0 46 78 4 c42 1 89 4
105 5 15 1 27 -2 27 -8z m278 -217 l2 -193 -165 0 -165 0 0 188 c0 104 3 192
7 196 4 3 77 5 162 4 l156 -3 3 -192z m-393 147 c18 -20 17 -20 -25 -20 -42 0
-43 0 -25 20 10 11 21 20 25 20 4 0 15 -9 25 -20z m42 -12 c-3 -8 -6 -5 -6 6
-1 11 2 17 5 13 3 -3 4 -12 1 -19z m3 -139 c0 -31 -4 -48 -10 -44 -5 3 -10 26
-10 51 0 24 5 44 10 44 6 0 10 -23 10 -51z m0 -139 c0 -5 -20 -10 -45 -10 -25
0 -45 -4 -45 -10 0 -5 20 -10 45 -10 25 0 45 -5 45 -10 0 -7 -33 -10 -92 -8
l-93 3 -3 28 -3 27 95 0 c57 0 96 -4 96 -10z"/>
<path d="M300 690 c0 -5 5 -10 10 -10 6 0 10 5 10 10 0 6 -4 10 -10 10 -5 0
-10 -4 -10 -10z"/>
<path d="M350 690 c0 -5 9 -10 20 -10 11 0 20 5 20 10 0 6 -9 10 -20 10 -11 0
-20 -4 -20 -10z"/>
<path d="M220 430 c0 -5 5 -10 10 -10 6 0 10 5 10 10 0 6 -4 10 -10 10 -5 0
-10 -4 -10 -10z"/>
<path d="M260 430 c0 -5 14 -10 30 -10 17 0 30 5 30 10 0 6 -13 10 -30 10 -16
0 -30 -4 -30 -10z"/>
<path d="M220 390 c0 -5 5 -10 10 -10 6 0 10 5 10 10 0 6 -4 10 -10 10 -5 0
-10 -4 -10 -10z"/>
<path d="M260 390 c0 -5 13 -10 29 -10 17 0 33 5 36 10 4 6 -8 10 -29 10 -20
0 -36 -4 -36 -10z"/>
<path d="M220 350 c0 -5 5 -10 10 -10 6 0 10 5 10 10 0 6 -4 10 -10 10 -5 0
-10 -4 -10 -10z"/>
<path d="M260 350 c0 -5 13 -10 29 -10 17 0 33 5 36 10 4 6 -8 10 -29 10 -20
0 -36 -4 -36 -10z"/>
<path d="M265 310 c3 -5 17 -10 30 -10 13 0 27 5 30 10 4 6 -8 10 -30 10 -22
0 -34 -4 -30 -10z"/>
<path d="M437 513 c-11 -10 -8 -73 3 -73 6 0 10 14 10 30 0 27 3 30 30 30 17
0 30 5 30 10 0 11 -63 14 -73 3z"/>
<path d="M518 495 c-8 -18 -17 -24 -30 -19 -10 3 -18 1 -18 -4 0 -11 29 -37
33 -31 32 41 46 69 37 74 -5 3 -15 -5 -22 -20z"/>
<path d="M580 500 c0 -5 18 -10 40 -10 22 0 40 5 40 10 0 6 -18 10 -40 10 -22
0 -40 -4 -40 -10z"/>
<path d="M685 500 c-3 -5 1 -10 9 -10 9 0 16 5 16 10 0 6 -4 10 -9 10 -6 0
-13 -4 -16 -10z"/>
<path d="M580 460 c0 -5 5 -10 10 -10 6 0 10 5 10 10 0 6 -4 10 -10 10 -5 0
-10 -4 -10 -10z"/>
<path d="M630 460 c0 -5 11 -10 25 -10 14 0 25 5 25 10 0 6 -11 10 -25 10 -14
0 -25 -4 -25 -10z"/>
<path d="M437 403 c-11 -10 -8 -61 3 -68 6 -4 10 7 10 24 0 28 3 31 30 31 17
0 30 5 30 10 0 11 -63 14 -73 3z"/>
<path d="M516 385 c-10 -15 -22 -22 -31 -19 -8 4 -15 2 -15 -4 0 -11 29 -37
33 -31 19 24 47 68 47 73 0 14 -19 4 -34 -19z"/>
<path d="M580 390 c0 -5 18 -10 40 -10 22 0 40 5 40 10 0 6 -18 10 -40 10 -22
0 -40 -4 -40 -10z"/>
<path d="M685 390 c3 -5 10 -10 16 -10 5 0 9 5 9 10 0 6 -7 10 -16 10 -8 0
-12 -4 -9 -10z"/>
<path d="M580 350 c0 -5 4 -10 9 -10 6 0 13 5 16 10 3 6 -1 10 -9 10 -9 0 -16
-4 -16 -10z"/>
<path d="M630 350 c0 -5 11 -10 25 -10 14 0 25 5 25 10 0 6 -11 10 -25 10 -14
0 -25 -4 -25 -10z"/>
<path d="M443 304 c-15 -7 -18 -74 -3 -74 6 0 10 11 10 24 0 19 6 25 25 28 14
2 26 8 26 13 0 11 -39 17 -58 9z"/>
<path d="M516 279 c-9 -13 -21 -19 -30 -16 -21 8 -20 -7 0 -24 17 -14 29 -4
55 44 14 25 -7 22 -25 -4z"/>
<path d="M598 283 c12 -2 32 -2 45 0 12 2 2 4 -23 4 -25 0 -35 -2 -22 -4z"/>
<path d="M688 283 c7 -3 16 -2 19 1 4 3 -2 6 -13 5 -11 0 -14 -3 -6 -6z"/>
<path d="M580 250 c0 -5 7 -10 16 -10 8 0 12 5 9 10 -3 6 -10 10 -16 10 -5 0
-9 -4 -9 -10z"/>
<path d="M625 250 c-4 -6 7 -10 24 -10 17 0 31 5 31 10 0 6 -11 10 -24 10 -14
0 -28 -4 -31 -10z"/>
</g>
</svg>
