<?xml version="1.0" standalone="no"?>
<!DOCTYPE svg PUBLIC "-//W3C//DTD SVG 20010904//EN"
 "http://www.w3.org/TR/2001/REC-SVG-20010904/DTD/svg10.dtd">
<svg version="1.0" xmlns="http://www.w3.org/2000/svg"
 width="89.000000pt" height="90.000000pt" viewBox="0 0 89.000000 90.000000"
 preserveAspectRatio="xMidYMid meet">

<g transform="translate(0.000000,90.000000) scale(0.100000,-0.100000)"
fill="#000000" stroke="none">
<path d="M144 727 c-2 -7 -3 -60 -2 -118 l3 -104 30 -5 c21 -4 31 -11 33 -28
3 -17 10 -22 33 -22 16 0 29 -4 29 -10 0 -5 -11 -10 -25 -10 -23 0 -25 -3 -25
-49 0 -47 -2 -50 -27 -53 -26 -3 -28 -7 -31 -55 -2 -29 -8 -53 -13 -53 -6 0
-9 -12 -7 -27 l3 -28 91 -3 c74 -2 93 0 104 13 11 13 11 21 2 36 -7 10 -12 36
-12 57 0 47 -14 62 -57 62 -32 0 -33 1 -33 40 0 22 5 40 10 40 6 0 10 -4 10
-10 0 -5 9 -19 20 -30 18 -18 33 -20 155 -20 132 0 135 0 151 25 9 14 25 25
35 25 15 0 19 -7 19 -35 0 -33 -2 -35 -35 -35 l-35 0 0 -85 0 -85 75 0 75 0 0
85 0 85 -30 0 c-29 0 -30 2 -30 45 0 43 -1 45 -29 45 -17 0 -33 5 -36 10 -4 6
5 10 19 10 25 0 26 3 26 55 0 48 2 55 20 55 11 0 20 5 20 10 0 6 -4 10 -10 10
-23 0 -8 19 18 22 27 3 27 4 27 73 l0 70 -78 3 c-97 4 -107 -3 -107 -72 0 -55
12 -76 42 -76 10 0 18 -4 18 -10 0 -5 -4 -10 -10 -10 -5 0 -10 -4 -10 -10 0
-5 11 -10 25 -10 23 0 25 -4 25 -46 0 -44 -1 -45 -27 -42 -20 2 -32 12 -44 36
-8 19 -22 38 -30 43 -22 14 -75 11 -89 -6 -7 -8 -28 -15 -47 -15 -23 0 -41 -8
-57 -25 -18 -19 -33 -25 -65 -25 -49 0 -53 22 -5 30 l29 5 0 115 0 115 -68 3
c-50 2 -69 -1 -73 -11z m126 -17 c0 -5 -25 -10 -55 -10 -30 0 -55 5 -55 10 0
6 25 10 55 10 30 0 55 -4 55 -10z m430 -25 l0 -35 -75 0 -75 0 0 35 0 35 75 0
75 0 0 -35z m-430 -50 l0 -45 -55 0 -55 0 0 45 0 45 55 0 55 0 0 -45z m430
-15 c0 -6 -32 -10 -75 -10 -43 0 -75 4 -75 10 0 6 32 10 75 10 43 0 75 -4 75
-10z m-50 -40 c0 -5 -9 -10 -20 -10 -11 0 -20 5 -20 10 0 6 9 10 20 10 11 0
20 -4 20 -10z m-380 -34 c0 -18 -7 -25 -27 -29 -49 -9 -83 3 -83 29 0 22 4 24
55 24 51 0 55 -2 55 -24z m248 -28 c7 -7 12 -22 12 -34 0 -14 8 -25 20 -29 25
-8 37 -50 20 -70 -18 -22 -262 -22 -280 0 -13 16 -6 65 10 65 5 0 20 12 34 27
18 19 34 26 59 25 20 -1 40 5 47 13 15 18 61 20 78 3z m-208 -253 l0 -45 -65
0 -65 0 0 45 0 45 65 0 65 0 0 -45z m390 15 c0 -30 -1 -30 -55 -30 -54 0 -55
0 -55 30 0 30 1 30 55 30 54 0 55 0 55 -30z m0 -75 c0 -24 -3 -25 -55 -25 -52
0 -55 1 -55 25 0 24 3 25 55 25 52 0 55 -1 55 -25z m-370 -15 c0 -6 -35 -10
-85 -10 -50 0 -85 4 -85 10 0 6 35 10 85 10 50 0 85 -4 85 -10z"/>
<path d="M200 540 c0 -5 6 -10 14 -10 8 0 18 5 21 10 3 6 -3 10 -14 10 -12 0
-21 -4 -21 -10z"/>
<path d="M610 280 c0 -5 5 -10 10 -10 6 0 10 5 10 10 0 6 -4 10 -10 10 -5 0
-10 -4 -10 -10z"/>
<path d="M650 280 c0 -5 7 -10 15 -10 8 0 15 5 15 10 0 6 -7 10 -15 10 -8 0
-15 -4 -15 -10z"/>
<path d="M610 210 c0 -5 9 -10 21 -10 11 0 17 5 14 10 -3 6 -13 10 -21 10 -8
0 -14 -4 -14 -10z"/>
<path d="M665 210 c-3 -5 -1 -10 4 -10 6 0 11 5 11 10 0 6 -2 10 -4 10 -3 0
-8 -4 -11 -10z"/>
</g>
</svg>
